<?xml version="1.0" encoding="utf-8"?>
<!-- Generator: Adobe Illustrator 26.1.0, SVG Export Plug-In . SVG Version: 6.00 Build 0)  -->
<svg version="1.1" id="Layer_1" xmlns="http://www.w3.org/2000/svg" xmlns:xlink="http://www.w3.org/1999/xlink" x="0px" y="0px"
	 width="130px" height="59.1px" viewBox="0 0 130 59.1" style="enable-background:new 0 0 130 59.1;" xml:space="preserve">
<style type="text/css">
	.st0{fill:#1F439A;}
	.st1{fill:#5CC9F1;}
</style>
<g>
	<path class="st0" d="M36.3,51.9H38c0.3,0,0.6,0,0.7,0c0.2,0,0.3,0.1,0.5,0.2c0.2,0.1,0.3,0.3,0.4,0.5c0.1,0.2,0.2,0.5,0.2,0.8
		c0,0.7-0.3,1.1-0.8,1.4l1,2.3h-1.3l-0.7-2h-0.6v2.1h-1.2L36.3,51.9L36.3,51.9z M37.5,52.8v1.5H38c0.5,0,0.7-0.3,0.7-0.8
		c0-0.2,0-0.3-0.1-0.4c-0.1-0.1-0.1-0.2-0.2-0.2c-0.1,0-0.2-0.1-0.4-0.1H37.5z"/>
	<polygon class="st0" points="42.3,51.9 45.5,51.9 45.5,52.8 43.4,52.8 43.4,54.1 45,54.1 45,55 43.4,55 43.4,56.3 45.5,56.3 
		45.5,57.2 42.3,57.2 	"/>
	<polygon class="st0" points="47.7,51.9 48.9,51.9 48.9,54.1 50.2,51.9 51.3,51.9 50,53.9 51.5,57.2 50.2,57.2 49.3,54.8 48.9,55.4 
		48.9,57.2 47.7,57.2 	"/>
	<path class="st0" d="M56.8,53.1l-1,0.4c-0.1-0.4-0.4-0.7-0.8-0.7c-0.2,0-0.3,0-0.4,0.1c-0.1,0.1-0.2,0.2-0.2,0.3
		c0,0.2,0.1,0.3,0.2,0.4c0.1,0.1,0.4,0.2,0.7,0.4c0.3,0.1,0.6,0.3,0.8,0.4c0.2,0.1,0.4,0.3,0.5,0.5s0.2,0.5,0.2,0.7
		c0,0.5-0.2,0.9-0.5,1.2s-0.8,0.5-1.4,0.5c-1,0-1.6-0.5-1.9-1.5l1-0.3c0.1,0.5,0.4,0.8,0.9,0.8c0.2,0,0.4-0.1,0.5-0.2
		c0.1-0.1,0.2-0.2,0.2-0.4c0-0.1,0-0.2-0.1-0.4c-0.1-0.1-0.3-0.2-0.6-0.3c-0.4-0.1-0.7-0.3-0.9-0.4c-0.2-0.1-0.4-0.3-0.5-0.5
		s-0.2-0.5-0.2-0.8c0-0.5,0.2-0.9,0.5-1.2s0.7-0.5,1.2-0.5C56,51.8,56.5,52.2,56.8,53.1"/>
	<path class="st0" d="M62.3,51.9h1.5c0.5,0,0.8,0,1.1,0.1s0.5,0.3,0.6,0.5c0.2,0.3,0.3,0.6,0.3,1s-0.1,0.7-0.2,1s-0.3,0.4-0.6,0.6
		c-0.2,0.1-0.6,0.2-1.1,0.2h-0.4v2h-1.2C62.3,57.3,62.3,51.9,62.3,51.9z M63.5,52.8v1.6h0.4c0.3,0,0.5-0.1,0.6-0.2
		c0.1-0.1,0.1-0.3,0.1-0.6c0-0.2,0-0.4-0.1-0.5s-0.2-0.2-0.3-0.2c-0.1,0-0.2-0.1-0.4-0.1H63.5z"/>
	<polygon class="st0" points="67.4,51.9 68.6,51.9 69.4,56 70.3,51.9 71.3,51.9 70,57.3 68.7,57.2 	"/>
	<polygon class="st0" points="73.1,51.9 76.4,51.9 76.4,52.9 75.3,52.9 75.3,57.2 74.2,57.2 74.2,52.9 73.1,52.9 	"/>
	<rect x="78.2" y="56.1" class="st0" width="1.1" height="1.2"/>
	<polygon class="st0" points="84.9,51.9 86.1,51.9 86.1,56.2 87.8,56.2 87.8,57.2 84.9,57.2 	"/>
	<polygon class="st0" points="89.2,51.9 92.5,51.9 92.5,52.9 91.4,52.9 91.4,57.2 90.3,57.2 90.3,52.9 89.2,52.9 	"/>
	<path class="st0" d="M94.5,51.9h1.3c0.5,0,1,0.1,1.3,0.2c0.3,0.1,0.6,0.4,0.8,0.8c0.2,0.4,0.3,0.9,0.3,1.6c0,0.5-0.1,0.9-0.2,1.3
		c-0.1,0.4-0.3,0.7-0.5,0.9s-0.4,0.4-0.7,0.4c-0.3,0.1-0.6,0.1-1,0.1h-1.4L94.5,51.9L94.5,51.9z M95.7,52.8v3.5h0.2
		c0.3,0,0.5-0.1,0.6-0.2c0.1-0.1,0.3-0.3,0.4-0.5C97,55.4,97,55,97,54.5s0-0.8-0.1-1s-0.2-0.4-0.4-0.5c-0.1-0.1-0.3-0.1-0.6-0.1
		h-0.2V52.8z"/>
	<rect x="100.6" y="56.1" class="st0" width="1.1" height="1.2"/>
	<polygon class="st1" points="48.9,16.1 44.4,11.6 25.1,30.9 34,30.9 	"/>
	<polygon class="st1" points="104.9,30.9 85.6,11.6 81.1,16.1 95.9,30.9 	"/>
	<polygon class="st0" points="69.4,20.6 73.7,20.6 67,13.9 67,33.1 67.9,33.1 70.9,33.1 79.3,33.1 69.4,23.4 	"/>
	<polygon class="st0" points="62.1,20.6 62.1,23.4 54.7,23.4 44.9,33.1 64.1,33.1 64.1,13.9 57.4,20.6 	"/>
	<polygon class="st0" points="64.9,1.5 33.2,33.1 41,33.1 64.2,9.9 65.6,8.6 66.9,9.9 80.4,23.3 73.5,23.4 83.2,33.1 96.7,33.1 
		65.1,1.5 	"/>
	<rect x="101.9" y="54.6" class="st1" width="26.6" height="0.6"/>
	<rect x="1.5" y="54.6" class="st1" width="26.6" height="0.6"/>
	<path class="st0" d="M10.6,39.4h2l2.5,8.8h-2l-0.4-1.8h-2.5l-0.4,1.8H7.9L10.6,39.4z M12.2,44.9l-0.9-3.6l-0.9,3.6H12.2z"/>
	<polygon class="st0" points="18.4,39.4 20.4,39.4 20.4,46.6 23.2,46.6 23.2,48.3 18.4,48.3 	"/>
	<path class="st0" d="M26.7,39.4h2.5c0.8,0,1.4,0.1,1.8,0.2c0.4,0.1,0.8,0.4,1.1,0.9s0.4,1,0.4,1.7c0,0.6-0.1,1.2-0.3,1.6
		c-0.2,0.4-0.6,0.7-1,0.9s-1,0.3-1.9,0.3h-0.7v3.3h-1.9V39.4z M28.7,40.8v2.6h0.6c0.5,0,0.9-0.1,1-0.4c0.2-0.2,0.2-0.6,0.2-1
		c0-0.3-0.1-0.6-0.2-0.8s-0.3-0.3-0.4-0.4c-0.2-0.1-0.4-0.1-0.7-0.1h-0.5V40.8z"/>
	<rect x="36.2" y="39.4" class="st0" width="1.9" height="8.8"/>
	<polygon class="st0" points="42.4,39.4 44.5,39.4 46.8,44.9 46.8,39.4 48.3,39.4 48.3,48.3 46.6,48.3 43.9,41.9 43.9,48.3 
		42.4,48.3 	"/>
	<polygon class="st0" points="52.5,39.4 57.9,39.4 57.9,40.9 54.5,40.9 54.5,43 57.1,43 57.1,44.5 54.5,44.5 54.5,46.7 57.9,46.7 
		57.9,48.3 52.5,48.3 	"/>
	<path class="st0" d="M66.6,39.4h2.8c0.5,0,1,0,1.2,0.1c0.3,0,0.6,0.2,0.9,0.4s0.5,0.5,0.7,0.9s0.3,0.8,0.3,1.3
		c0,1.1-0.4,1.9-1.2,2.3l1.6,3.9h-2.1l-1.2-3.5h-1v3.5h-1.9v-8.9H66.6z M68.6,40.8v2.5h0.9c0.8,0,1.1-0.4,1.1-1.3
		c0-0.3-0.1-0.5-0.2-0.7S70.2,41,70,40.9c-0.1-0.1-0.4-0.1-0.7-0.1H68.6z"/>
	<path class="st0" d="M78.1,39.4h2l2.5,8.8h-2l-0.4-1.8h-2.5l-0.4,1.8h-1.8L78.1,39.4z M79.8,44.9l-0.9-3.6L78,44.9H79.8z"/>
	<polygon class="st0" points="86,39.4 88.8,39.4 90.1,44.9 91.5,39.4 94.2,39.4 94.2,48.3 92.4,48.3 92.4,40.9 90.6,48.3 89.2,48.3 
		87.5,40.9 87.5,48.3 86,48.3 	"/>
	<path class="st0" d="M98.6,39.4h3c0.7,0,1.2,0.1,1.6,0.2c0.4,0.1,0.7,0.4,0.9,0.7c0.2,0.4,0.4,0.9,0.4,1.4c0,1-0.4,1.6-1.3,1.9
		c1,0.4,1.5,1.1,1.5,2.2c0,0.6-0.1,1.1-0.4,1.5s-0.6,0.7-1,0.8s-1,0.2-1.7,0.2h-3V39.4z M100.4,43h0.6c0.6,0,1-0.1,1.2-0.3
		s0.2-0.5,0.2-0.8s-0.1-0.5-0.2-0.7c-0.2-0.2-0.5-0.3-1-0.3h-0.8C100.4,40.9,100.4,43,100.4,43z M100.4,46.7h1
		c0.9,0,1.3-0.4,1.3-1.2c0-0.4-0.1-0.7-0.3-0.9c-0.2-0.2-0.6-0.3-1-0.3h-1V46.7z"/>
	<polygon class="st0" points="108.7,39.4 110.6,39.4 110.6,46.6 113.5,46.6 113.5,48.3 108.7,48.3 	"/>
	<polygon class="st0" points="117,39.4 122.3,39.4 122.3,40.9 118.9,40.9 118.9,43 121.6,43 121.6,44.5 118.9,44.5 118.9,46.7 
		122.3,46.7 122.3,48.3 117,48.3 	"/>
	<polygon class="st0" points="30.8,51.9 34.2,51.9 34.2,52.9 33.1,52.9 33.1,57.2 31.9,57.2 31.9,52.9 30.8,52.9 	"/>
</g>
</svg>
